<svg xmlns="http://www.w3.org/2000/svg" width="100%" viewBox="0 0 48 32" fill="none">
    <path fill-rule="evenodd" clip-rule="evenodd"
        d="M0 15.601C0 6.98529 6.99155 0 15.615 0H32.385C41.0085 0 48 6.98529 48 15.601C48 24.2168 41.0085 31.2021 32.385 31.2021H15.615C6.99155 31.2021 0 24.2168 0 15.601ZM24.3888 15.601C24.3888 20.3549 20.5266 24.2104 15.7622 24.2104C10.9977 24.2104 7.13554 20.3549 7.13554 15.601C7.13554 10.8472 10.9977 6.99169 15.7622 6.99169C20.5266 6.99169 24.3888 10.8472 24.3888 15.601ZM27.1118 23.9514L41.77 15.601L27.1118 7.25064V23.9514Z"
        fill="#f230aa"></path>
</svg>